<svg width="20" height="17" viewBox="0 0 20 17" fill="none" xmlns="http://www.w3.org/2000/svg">
<path d="M19.2665 0.650622C18.4874 1.11588 17.6265 1.45588 16.7065 1.63483C16.334 1.23171 15.8801 0.909539 15.3738 0.688916C14.8676 0.468293 14.3201 0.354076 13.7665 0.353569C11.5438 0.353569 9.73922 2.17346 9.73922 4.41925C9.73922 4.73689 9.77376 5.04557 9.84285 5.34441C6.49558 5.17441 3.5274 3.55852 1.53922 1.09441C1.18045 1.71884 0.992504 2.42422 0.993761 3.14157C0.993761 4.55167 1.70467 5.79625 2.78649 6.52546C2.1447 6.50412 1.51772 6.33005 0.959215 6.01815V6.06825C0.959215 8.03936 2.35012 9.68299 4.19376 10.0552C3.85558 10.1509 3.49922 10.1984 3.13194 10.1984C2.87746 10.1987 2.62353 10.1748 2.37376 10.1268C2.8874 11.7418 4.37376 12.9184 6.1374 12.9488C4.72136 14.0761 2.95503 14.6907 1.13376 14.6899C0.809215 14.6899 0.488306 14.672 0.172852 14.6345C2.00503 15.8248 4.15202 16.4595 6.3474 16.4597C13.7583 16.4597 17.811 10.2655 17.811 4.89078C17.811 4.71452 17.8065 4.53825 17.8001 4.36467C18.5914 3.78678 19.2717 3.07478 19.8092 2.26204C19.0754 2.5892 18.2952 2.80461 17.4956 2.90088C18.3423 2.3859 18.9712 1.58701 19.2665 0.651516" fill="#343434"/>
</svg>
