<svg fill="none" height="18" viewBox="0 0 18 18" width="18" xmlns="http://www.w3.org/2000/svg"><path d="m18 14c0 2.2091-1.7909 4-4 4h-1.5011v-6.8109h2.376l.36-2.91853h-2.7343v-1.51886c0-.77828.2143-1.40142 1.3645-1.40142h1.6346v-2.31943c-.0829-.00569-.1733-.01244-.2712-.01974-.4921-.03671-1.1716-.08741-2.0174-.08741-2.1111 0-3.71139 1.25572-3.71139 3.56229v1.78543h-2.49942v2.91767h2.49942v6.8109h-5.49971c-2.20914 0-4-1.7909-4-4v-10c0-2.20914 1.79086-4 4-4h10c2.2091 0 4 1.79086 4 4z" fill="#343434"/></svg>