<svg fill="none" height="75" viewBox="0 0 55 75" width="55" xmlns="http://www.w3.org/2000/svg"><g stroke="#54894a" stroke-width="2"><path clip-rule="evenodd" d="m27.6574 1.48633c-3.9203 0-8.0835 1.33785-10.9123 5.23377-1.7568 2.4196-3.0071 5.9629-3.6731 10.6669-3.14739 1.0886-5.19179 3.0451-6.21881 5.7822-1.008 2.6863-1.10242 5.6026-.23516 8.7513-1.59534 2.6516-2.4824 4.9522-2.72112 6.8843-.37825 3.0614.1749 6.9657.94658 9.5793 1.26139 4.2722 3.42993 8.1597 6.29381 10.891 2.6992 2.5743 6.0091 4.1369 9.7766 4.1369h12.876c5.2006 0 9.6676-4.4482 12.4317-7.7173 3.0601-3.6192 4.7706-7.8679 4.7706-16.0811 0-4.3311-1.4614-7.7075-4.3177-10.1653.6779-6.8823-.2845-11.654-2.5696-14.4583-1.7692-2.1712-3.651-3.6222-5.6155-4.4049-.4283-3.53924-1.9706-6.01885-4.487-7.53604-1.9725-1.18934-3.9238-1.56273-6.345-1.56273z" fill="#ace0a2" fill-rule="evenodd"/><g stroke-linecap="round"><path d="m27.2947 73.7137v-40.1021"/><path d="m1 74h27.0581 25.5477"/><path d="m33.79 36.4836-6.4953 7.9882"/><path d="m19.8863 42.2507 7.4182 6.4209v9.2159l9.0701-11.1096"/></g></g></svg>