<svg fill="none" height="16" viewBox="0 0 16 16" width="16" xmlns="http://www.w3.org/2000/svg"><g fill="#181818"><path d="m8.38411.460932c-.1999-.239877-.56832-.239876-.76822.000001l-3.93248 4.718977c-.27139.32566-.03981.82009.38411.82009h1.43248c.27614 0 .5.22386.5.5v8.5c0 .6.4 1 1 1h2c.6 0 1-.4 1-1v-8.5c0-.27614.2239-.5.5-.5h1.4325c.4239 0 .6555-.49443.3841-.82009z"/><path d="m3 11h-2c-.6 0-1 .4-1 1v3c0 .6.4 1 1 1h2c.6 0 1-.4 1-1v-3c0-.6-.4-1-1-1z"/><path d="m15 8h-2c-.6 0-1 .4-1 1v6c0 .6.4 1 1 1h2c.6 0 1-.4 1-1v-6c0-.6-.4-1-1-1z"/></g></svg>