<svg width="9" height="6" viewBox="0 0 9 6" fill="none" xmlns="http://www.w3.org/2000/svg">
<path fill-rule="evenodd" clip-rule="evenodd" d="M0.234473 0.834563C0.384496 0.684586 0.587942 0.600333 0.800073 0.600333C1.0122 0.600333 1.21565 0.684586 1.36567 0.834563L4.00007 3.46896L6.63447 0.834563C6.70827 0.758155 6.79655 0.697209 6.89415 0.655282C6.99175 0.613354 7.09673 0.591285 7.20295 0.590362C7.30918 0.589439 7.41452 0.60968 7.51284 0.649905C7.61115 0.69013 7.70047 0.749532 7.77559 0.824646C7.8507 0.899761 7.91011 0.989082 7.95033 1.0874C7.99056 1.18572 8.0108 1.29106 8.00987 1.39728C8.00895 1.50351 7.98688 1.60848 7.94495 1.70609C7.90303 1.80369 7.84208 1.89197 7.76567 1.96576L4.56567 5.16576C4.41565 5.31574 4.2122 5.39999 4.00007 5.39999C3.78794 5.39999 3.5845 5.31574 3.43447 5.16576L0.234473 1.96576C0.0844966 1.81574 0.000244141 1.61229 0.000244141 1.40016C0.000244141 1.18803 0.0844966 0.984585 0.234473 0.834563Z" fill="#737373"/>
</svg>
