<svg fill="none" height="16" viewBox="0 0 16 16" width="16" xmlns="http://www.w3.org/2000/svg"><path clip-rule="evenodd" d="m8 16c2.1217 0 4.1566-.8429 5.6569-2.3431 1.5002-1.5003 2.3431-3.5352 2.3431-5.6569 0-2.12173-.8429-4.15656-2.3431-5.65685-1.5003-1.500295-3.5352-2.34315-5.6569-2.34315-2.12173 0-4.15656.842855-5.65685 2.34315-1.500295 1.50029-2.34315 3.53512-2.34315 5.65685 0 2.1217.842855 4.1566 2.34315 5.6569 1.50029 1.5002 3.53512 2.3431 5.65685 2.3431zm1-12c0-.26522-.10536-.51957-.29289-.70711-.18754-.18753-.44189-.29289-.70711-.29289s-.51957.10536-.70711.29289c-.18753.18754-.29289.44189-.29289.70711v4c.00006.26519.10545.51951.293.707l2.828 2.829c.0929.0929.2032.1666.3246.2169s.2515.0762.3829.0762.2615-.0259.3829-.0762.2317-.124.3246-.2169.1666-.2032.2169-.3246.0762-.2515.0762-.3829-.0259-.2615-.0762-.3829-.124-.2317-.2169-.3246l-2.536-2.535z" fill="#737373" fill-rule="evenodd"/></svg>