<svg width="25" height="33" viewBox="0 0 25 33" fill="none" xmlns="http://www.w3.org/2000/svg">
<path d="M19.5862 18.731V31L12.3449 27.8966L5.10352 31V18.731" fill="#E6E6E6"/>
<path d="M19.5862 18.731V31L12.3449 27.8966L5.10352 31V18.731" stroke="#181818" stroke-width="1.5" stroke-miterlimit="10"/>
<path fill-rule="evenodd" clip-rule="evenodd" d="M7.13372 3.0914C8.05842 3.01757 8.93625 2.65386 9.6422 2.05207C10.4395 1.37297 11.4527 1 12.5 1C13.5473 1 14.5605 1.37297 15.3578 2.05207C16.0638 2.65386 16.9416 3.01757 17.8663 3.0914C18.9105 3.17485 19.8909 3.62754 20.6317 4.3683C21.3725 5.10906 21.8251 6.08946 21.9086 7.13372C21.9819 8.05805 22.3456 8.93638 22.9479 9.6422C23.627 10.4395 24 11.4527 24 12.5C24 13.5473 23.627 14.5605 22.9479 15.3578C22.3461 16.0638 21.9824 16.9416 21.9086 17.8663C21.8251 18.9105 21.3725 19.8909 20.6317 20.6317C19.8909 21.3725 18.9105 21.8251 17.8663 21.9086C16.9416 21.9824 16.0638 22.3461 15.3578 22.9479C14.5605 23.627 13.5473 24 12.5 24C11.4527 24 10.4395 23.627 9.6422 22.9479C8.93625 22.3461 8.05842 21.9824 7.13372 21.9086C6.08946 21.8251 5.10906 21.3725 4.3683 20.6317C3.62754 19.8909 3.17485 18.9105 3.0914 17.8663C3.01757 16.9416 2.65386 16.0638 2.05207 15.3578C1.37297 14.5605 1 13.5473 1 12.5C1 11.4527 1.37297 10.4395 2.05207 9.6422C2.65386 8.93625 3.01757 8.05842 3.0914 7.13372C3.17485 6.08946 3.62754 5.10906 4.3683 4.3683C5.10906 3.62754 6.08946 3.17485 7.13372 3.0914Z" fill="#E6E6E6" stroke="#181818" stroke-width="1.5" stroke-miterlimit="10" stroke-linecap="square"/>
<circle cx="12.5" cy="12.5" r="6.5" fill="white" stroke="#181818" stroke-width="1.5" stroke-miterlimit="10" stroke-linecap="square"/>
<path d="M10 12L12.5 14.5L17.5 9" stroke="#181818" stroke-width="1.5" stroke-miterlimit="10" stroke-linecap="round" stroke-linejoin="round"/>
</svg>
