<svg fill="none" height="18" viewBox="0 0 20 18" width="20" xmlns="http://www.w3.org/2000/svg" xmlns:xlink="http://www.w3.org/1999/xlink"><clipPath id="a"><path d="m0 .5h20v17h-20z"/></clipPath><g clip-path="url(#a)"><path d="m19.2664 1.65057c-.7791.46526-1.64.80526-2.56.98421-.3725-.40312-.8264-.72529-1.3327-.94592-.5062-.22062-1.0537-.33484-1.6073-.33534-2.2228 0-4.02731 1.81989-4.02731 4.06568 0 .31763.03455.62632.10364.92516-3.34727-.17-6.31545-1.7859-8.30364-4.25-.35876.62442-.546708 1.32981-.545451 2.04716 0 1.4101.710911 2.65468 1.792731 3.38389-.64179-.02134-1.26877-.19541-1.827277-.50732v.05011c0 1.97111 1.390907 3.6147 3.234547 3.9869-.33818.0958-.69455.1432-1.06182.1432-.25449.0004-.50841-.0236-.75818-.0716.51363 1.615 2 2.7916 3.76364 2.822-1.41604 1.1273-3.18237 1.742-5.00364 1.7412-.324547 0-.645456-.0179-.960911-.0555 1.832181 1.1904 3.979171 1.825 6.174541 1.8253 7.41093 0 11.46363-6.1943 11.46363-11.56897 0-.17627-.0045-.35253-.0109-.52611.7912-.5779 1.4716-1.28989 2.0091-2.10263-.7339.32716-1.514.54257-2.3136.63884.8466-.51499 1.4756-1.31387 1.7709-2.24937" fill="#737373"/></g></svg>