<svg width="16" height="16" viewBox="0 0 16 16" fill="none" xmlns="http://www.w3.org/2000/svg">
<path d="M8.38411 0.460932C8.18421 0.221055 7.81579 0.221056 7.61589 0.460933L3.68341 5.17991C3.41202 5.50557 3.6436 6 4.06752 6H5.5C5.77614 6 6 6.22386 6 6.5V15C6 15.6 6.4 16 7 16H9C9.6 16 10 15.6 10 15V6.5C10 6.22386 10.2239 6 10.5 6H11.9325C12.3564 6 12.588 5.50557 12.3166 5.17991L8.38411 0.460932Z" fill="#181818"/>
<path d="M3 11H1C0.4 11 0 11.4 0 12V15C0 15.6 0.4 16 1 16H3C3.6 16 4 15.6 4 15V12C4 11.4 3.6 11 3 11Z" fill="#181818"/>
<path d="M15 8H13C12.4 8 12 8.4 12 9V15C12 15.6 12.4 16 13 16H15C15.6 16 16 15.6 16 15V9C16 8.4 15.6 8 15 8Z" fill="#181818"/>
</svg>
