<svg width="16" height="15" viewBox="0 0 16 15" fill="none" xmlns="http://www.w3.org/2000/svg">
<path fill-rule="evenodd" clip-rule="evenodd" d="M3 1C3 0.447715 3.44772 0 4 0C4.55228 0 5 0.447715 5 1V2H11V1C11 0.447715 11.4477 0 12 0C12.5523 0 13 0.447715 13 1V2H14C15.1046 2 16 2.89543 16 4V13C16 14.1046 15.1046 15 14 15H2C0.895431 15 0 14.1046 0 13V4C0 2.89543 0.895431 2 2 2H3V1ZM2 5C2 4.44772 2.44772 4 3 4H13C13.5523 4 14 4.44772 14 5C14 5.55228 13.5523 6 13 6H3C2.44772 6 2 5.55228 2 5Z" fill="#181818"/>
</svg>
