<svg fill="none" height="34" viewBox="0 0 30 34" width="30" xmlns="http://www.w3.org/2000/svg"><path d="m27 1h-24c-1.2 0-2 .8-2 2v28c0 1.2.8 2 2 2h24c1.2 0 2-.8 2-2v-28c0-1.2-.8-2-2-2zm-18 24c0 1.1046-.89543 2-2 2s-2-.8954-2-2 .89543-2 2-2 2 .8954 2 2zm0-8c0 1.1046-.89543 2-2 2s-2-.8954-2-2 .89543-2 2-2 2 .8954 2 2zm8 8c0 1.1046-.8954 2-2 2s-2-.8954-2-2 .8954-2 2-2 2 .8954 2 2zm0-8c0 1.1046-.8954 2-2 2s-2-.8954-2-2 .8954-2 2-2 2 .8954 2 2zm8 9c0 .5523-.4477 1-1 1h-2c-.5523 0-1-.4477-1-1v-10c0-.5523.4477-1 1-1h2c.5523 0 1 .4477 1 1zm0-16c0 .5523-.4477 1-1 1h-18c-.55228 0-1-.4477-1-1v-4c0-.55228.44772-1 1-1h18c.5523 0 1 .44772 1 1z" fill="#fff" stroke="#737373" stroke-width="1.5"/></svg>