<svg fill="none" height="16" viewBox="0 0 16 16" width="16" xmlns="http://www.w3.org/2000/svg"><path clip-rule="evenodd" d="m1.166 2.98522c2.89514-.03518 4.67881-1.09592 6.834-2.98522 2.155 1.88965 3.9387 2.95075 6.834 2.9862.11.63515.166 1.28985.166 1.95529 0 5.10561-2.34 9.44911-7 11.05851-4.66-1.6104-7-5.9538-7-11.05948 0-.66643.057-1.31917.166-1.9553zm10.541 3.62331c.1822-.1843.283-.43113.2807-.68734s-.1075-.50129-.2929-.68246c-.1854-.18118-.4362-.28394-.6984-.28617s-.5148.09627-.7034.27426l-3.293 3.21779-1.293-1.26347c-.1886-.178-.4412-.27649-.7034-.27426-.2622.00222-.51301.10499-.69842.28616-.18541.18118-.29058.42626-.29285.68247-.00228.25621.09851.50304.28067.68733l2 1.95436c.18753.1831.44184.2861.707.2861s.51947-.103.707-.2861z" fill="#737373" fill-rule="evenodd"/></svg>