<svg width="235" height="385" viewBox="0 0 235 385" fill="none" xmlns="http://www.w3.org/2000/svg">
<path d="M48.8226 107.534L42.6144 126.176C40.8936 125.365 37.7221 123.407 35.2253 119.219C31.5814 113.174 31.3452 102.536 34.6517 92.4045L48.8226 107.534Z" fill="url(#paint0_linear)"/>
<path opacity="0.14" d="M43.289 101.624C41.8719 110.945 42.6142 126.176 42.6142 126.176L45.887 112.397L44.8748 103.211L43.289 101.624Z" fill="#E8B497"/>
<path d="M28.2401 92.9449C29.0161 91.5603 29.9608 90.1081 31.108 88.5884L34.6507 92.3708C32.6938 98.3821 31.9853 104.562 32.4914 109.864C31.6816 109.324 30.9731 108.75 30.332 108.108C26.2157 104.191 25.4397 97.9093 28.2401 92.9449Z" fill="url(#paint1_linear)"/>
<path d="M130.169 305.57C100.242 288.279 51.8923 288.279 22.1673 305.57C-7.55778 322.861 -7.38908 350.891 22.5047 368.182C23.3482 368.688 24.2254 369.161 25.1027 369.6L19.4006 374.666L23.112 385L41.3991 376.152C59.72 381.657 81.0438 382.568 100.343 378.921L100.444 382.636L106.18 383.514L115.29 379.36L120.688 372.977C124.13 371.559 127.436 369.972 130.507 368.182C160.266 350.891 160.097 322.861 130.169 305.57Z" fill="url(#paint2_radial)"/>
<path d="M91.6047 267.34C76.6578 258.391 52.095 258.155 36.7432 266.8C28.1733 271.596 24.2931 278.147 25.1029 284.564C25.1029 284.496 25.0692 284.429 25.0692 284.361C26.6212 298.511 29.4891 308.845 30.5688 312.729C30.6025 312.864 30.6363 312.966 30.67 313.101C30.6363 312.966 30.6025 312.864 30.5688 312.729C31.8172 317.153 33.0656 321.577 34.314 326.001C35.2587 329.378 37.9242 332.62 42.3441 335.255C53.782 342.11 72.6427 342.313 84.418 335.694C89.1417 333.026 92.0096 329.682 93.0218 326.204C93.6628 324.009 94.3039 321.78 94.945 319.585C95.586 317.39 96.2271 315.161 96.8681 312.966C96.8344 313.101 96.7669 313.269 96.7332 313.405C96.7669 313.269 96.8344 313.101 96.8681 312.966C100.748 299.491 102.03 288.684 102.536 284.631C102.503 284.868 102.469 285.104 102.435 285.341C103.481 278.89 99.9048 272.305 91.6047 267.34Z" fill="#DCDFE2"/>
<path d="M93.1869 205.604C93.2134 196.26 80.1682 188.648 64.0496 188.602C47.9311 188.556 34.8429 196.094 34.8165 205.439C34.79 214.783 47.8352 222.395 63.9538 222.441C80.0723 222.487 93.1604 214.949 93.1869 205.604Z" fill="#008AD1"/>
<path d="M25.0687 284.226C24.8325 282.031 24.4613 278.384 24.1914 273.318C23.9552 268.117 23.989 264.369 23.989 262.342C24.0227 259.269 24.2252 251.096 25.4398 241.472C26.6544 231.88 28.3414 224.316 29.5224 219.689C30.602 215.468 32.5252 208.882 35.6293 201.486C33.335 206.957 35.798 212.968 43.0521 217.291C54.2876 224.012 72.7772 224.214 84.3501 217.696C92.0091 213.408 94.7083 207.227 92.3802 201.621C93.3249 203.918 96.1591 210.875 98.386 219.858C99.5331 224.518 101.186 232.083 102.334 241.674C103.514 251.299 103.649 259.505 103.683 262.579C103.683 265.652 103.717 273.858 102.502 284.496C101.895 289.832 97.9811 295.067 90.8282 299.086C75.4764 307.731 50.9136 307.461 35.9667 298.545C29.2862 294.459 25.6422 289.393 25.0687 284.226Z" fill="#8AD1FA"/>
<path d="M25.0687 284.226C24.8325 282.031 24.4613 278.384 24.1914 273.318C23.9552 268.117 23.989 264.369 23.989 262.342C24.0227 259.269 24.2252 251.096 25.4398 241.472C26.6544 231.88 28.3414 224.316 29.5224 219.689C30.602 215.468 32.5252 208.882 35.6293 201.486C33.335 206.957 35.798 212.968 43.0521 217.291C54.2876 224.012 72.7772 224.214 84.3501 217.696C92.0091 213.408 94.7083 207.227 92.3802 201.621C93.3249 203.918 96.1591 210.875 98.386 219.858C99.5331 224.518 101.186 232.083 102.334 241.674C103.514 251.299 103.649 259.505 103.683 262.579C103.683 265.652 103.717 273.858 102.502 284.496C101.895 289.832 97.9811 295.067 90.8282 299.086C75.4764 307.731 50.9136 307.461 35.9667 298.545C29.2862 294.459 25.6422 289.393 25.0687 284.226Z" fill="#8AD1FA"/>
<path d="M90.2549 281.423L95.5183 281.761L94.1687 276.729L89.5801 280.174L90.2549 281.423Z" fill="#6AC3EF"/>
<path d="M102.502 284.463C101.929 289.494 98.4196 294.425 92.0428 298.343C91.1318 304.084 89.5797 312.29 86.7793 321.611C86.7456 321.78 86.6781 321.915 86.6106 322.084C86.6781 321.915 86.7118 321.78 86.7793 321.611C86.1045 323.908 85.3959 326.17 84.7211 328.467C84.0463 330.729 83.3715 332.992 82.6967 335.289C82.528 335.829 82.3256 336.369 82.0557 336.91C82.8654 336.538 83.6752 336.133 84.4512 335.694C89.1748 333.026 92.0428 329.682 93.055 326.204C93.696 324.009 94.3371 321.78 94.9782 319.585C95.6192 317.39 96.2603 315.161 96.9013 312.966C96.8676 313.101 96.8001 313.27 96.7664 313.405C96.8001 313.27 96.8676 313.101 96.9013 312.966C100.781 299.491 102.064 288.684 102.57 284.631C102.536 284.868 102.502 285.104 102.468 285.341C102.502 285.138 102.536 284.935 102.536 284.733C102.468 284.598 102.502 284.53 102.502 284.463C102.502 284.395 102.536 284.294 102.536 284.226C102.502 284.294 102.502 284.361 102.502 284.463Z" fill="#BDC1C6"/>
<path d="M102.503 284.463C102.503 284.395 102.537 284.294 102.537 284.226C103.752 273.723 103.718 265.652 103.684 262.579C103.684 262.005 103.684 261.228 103.65 260.316C103.65 259.708 103.617 259.066 103.617 258.357C103.617 258.323 103.617 258.323 103.617 258.29C103.482 254.237 103.178 248.293 102.368 241.708C101.66 235.832 100.783 230.732 99.9053 226.578C99.7703 225.97 99.6691 225.396 99.5341 224.822C99.1293 222.931 98.7244 221.276 98.387 219.892C98.0158 218.372 97.611 216.92 97.2061 215.501C96.9699 214.691 96.7337 213.88 96.4975 213.137C95.9577 211.347 95.4178 209.726 94.9117 208.274C94.6418 207.498 94.3719 206.755 94.102 206.079C93.967 205.741 93.8658 205.404 93.7308 205.1C93.1573 203.546 92.6512 202.398 92.3812 201.655C92.5162 201.993 92.6174 202.297 92.7186 202.634C92.7524 202.736 92.7861 202.871 92.8199 202.972C92.8873 203.175 92.9211 203.411 92.9886 203.614C93.0223 203.749 93.0223 203.884 93.056 204.019C93.0898 204.222 93.1235 204.424 93.1235 204.593C93.1235 204.728 93.1573 204.897 93.1573 205.032C93.1573 205.201 93.1573 205.404 93.1573 205.573C93.1573 205.741 93.1573 205.876 93.1573 206.045C93.1573 206.214 93.1235 206.383 93.1235 206.552C93.0898 206.721 93.0898 206.89 93.056 207.058C93.0223 207.16 93.0223 207.295 92.9886 207.396C92.8873 207.869 92.7861 208.308 92.6174 208.781C92.6174 208.815 92.5837 208.882 92.5837 208.916C92.5162 209.152 92.415 209.389 92.3138 209.625C92.28 209.693 92.2463 209.794 92.2125 209.862C92.1113 210.098 91.9764 210.334 91.8751 210.571C91.8414 210.638 91.8077 210.706 91.7739 210.773C91.639 211.01 91.504 211.246 91.3353 211.483C91.3016 211.516 91.2678 211.584 91.2341 211.618C90.2893 213.036 89.0072 214.387 87.3877 215.636C87.8938 217.426 88.3999 219.351 88.906 221.344C90.1206 226.443 91.8414 234.717 93.056 245.153C93.7983 251.671 94.0008 254.811 94.1695 259.134C94.3719 263.761 92.0101 269.164 88.4336 271.933C88.4336 271.933 93.2585 270.143 94.3719 269.097C94.3719 269.097 94.3719 269.536 94.3719 269.772C94.3719 269.84 94.3719 269.907 94.3719 269.975C94.3719 270.177 94.3719 270.414 94.3719 270.616C94.3719 270.751 94.3719 270.853 94.3719 270.988C94.3719 271.19 94.3719 271.393 94.3719 271.596C94.3719 271.764 94.3719 271.967 94.3719 272.136C94.3719 272.305 94.3719 272.507 94.3719 272.676C94.3719 272.913 94.3719 273.183 94.3382 273.453C94.3382 273.588 94.3382 273.723 94.3382 273.892C94.3044 274.736 94.2707 275.648 94.2369 276.628C94.2369 276.729 94.2369 276.864 94.2369 276.965C94.2369 277.337 94.2032 277.708 94.1695 278.114C94.1695 278.282 94.1357 278.451 94.1357 278.62C94.102 278.992 94.102 279.329 94.0682 279.701C94.0682 279.903 94.0345 280.106 94.0345 280.275C94.0008 280.613 94.0008 280.984 93.967 281.356C93.967 281.558 93.9333 281.795 93.9333 281.997C93.8995 282.369 93.8658 282.706 93.8658 283.078C93.8321 283.314 93.8321 283.551 93.7983 283.787C93.7646 284.159 93.7308 284.53 93.6971 284.902C93.6634 285.138 93.6634 285.374 93.6296 285.611C93.5959 286.016 93.5621 286.388 93.5284 286.793C93.4947 287.029 93.4947 287.266 93.4609 287.502C93.4272 287.941 93.3597 288.38 93.326 288.819C93.2922 289.055 93.2922 289.258 93.2585 289.461C93.191 290.136 93.1235 290.778 93.0223 291.453C93.0223 291.555 92.9886 291.656 92.9886 291.757C92.9548 291.926 92.9548 292.129 92.9211 292.298C92.9548 292.061 93.0223 291.791 93.056 291.555C93.0223 291.723 93.0223 291.892 92.9886 292.095C92.9886 292.129 92.9886 292.162 92.9886 292.196C92.9548 292.365 92.9548 292.568 92.9211 292.77C92.9211 292.804 92.9211 292.804 92.9211 292.838C92.8536 293.311 92.7861 293.783 92.7186 294.358C92.6174 295.168 92.4825 296.114 92.3138 297.127C92.3138 297.127 92.3138 297.127 92.3138 297.161C92.2463 297.498 92.2125 297.836 92.1451 298.208C98.4207 294.425 101.93 289.494 102.503 284.463Z" fill="#6AC3EF"/>
<path d="M92.988 203.58C92.9543 203.377 92.8868 203.141 92.8193 202.938C92.8868 203.175 92.9543 203.377 92.988 203.58Z" fill="#8AD1FA"/>
<path d="M93.1563 204.593C93.1226 204.391 93.1226 204.188 93.0889 204.019C93.0889 204.188 93.1226 204.391 93.1563 204.593Z" fill="#8AD1FA"/>
<path d="M93.1562 206.552C93.1562 206.383 93.19 206.214 93.19 206.045C93.19 206.214 93.1562 206.383 93.1562 206.552Z" fill="#8AD1FA"/>
<path d="M92.4141 201.621C92.7177 202.33 93.1901 203.512 93.7637 205.066C93.1563 203.512 92.684 202.33 92.4141 201.621Z" fill="#8AD1FA"/>
<path d="M94.1348 206.012C94.3709 206.687 94.6409 207.43 94.9445 208.207C94.6409 207.43 94.3709 206.687 94.1348 206.012Z" fill="#8AD1FA"/>
<path d="M93.0215 207.431C93.0554 207.329 93.0554 207.194 93.0893 207.092C93.0554 207.194 93.0554 207.295 93.0215 207.431Z" fill="#8AD1FA"/>
<path d="M91.7734 210.808C91.8074 210.74 91.8413 210.672 91.8752 210.604C91.8413 210.672 91.8074 210.74 91.7734 210.808Z" fill="#8AD1FA"/>
<path d="M91.2334 211.686C91.2673 211.652 91.3013 211.584 91.3352 211.55C91.3013 211.584 91.2673 211.618 91.2334 211.686Z" fill="#8AD1FA"/>
<path d="M92.6162 208.95C92.6501 208.916 92.6501 208.849 92.6501 208.815C92.6501 208.849 92.6501 208.882 92.6162 208.95Z" fill="#8AD1FA"/>
<path d="M92.2461 209.896C92.28 209.828 92.3139 209.727 92.3479 209.659C92.3139 209.727 92.28 209.794 92.2461 209.896Z" fill="#8AD1FA"/>
<path d="M94.9111 208.207C95.4172 209.659 95.9571 211.28 96.4969 213.07C95.9571 211.314 95.4172 209.659 94.9111 208.207Z" fill="#8AD1FA"/>
<path d="M92.7515 202.601C92.6502 202.263 92.549 201.959 92.4141 201.621C92.549 201.959 92.6502 202.263 92.7515 202.601Z" fill="#8AD1FA"/>
<path d="M99.5331 224.788C99.1283 222.897 98.7234 221.242 98.386 219.858C98.0148 218.338 97.61 216.886 97.2051 215.468C97.61 216.852 98.0148 218.304 98.386 219.858C98.7571 221.242 99.1283 222.897 99.5331 224.788Z" fill="#8AD1FA"/>
<path d="M92.6504 208.781C92.7854 208.342 92.9203 207.869 93.0215 207.396C92.9203 207.869 92.8191 208.342 92.6504 208.781Z" fill="#8AA1AD"/>
<path d="M92.3467 209.659C92.4479 209.422 92.5491 209.186 92.6166 208.95C92.5491 209.186 92.4479 209.422 92.3467 209.659Z" fill="#8AA1AD"/>
<path d="M91.875 210.604C92.01 210.368 92.1112 210.132 92.2124 209.895C92.1112 210.132 92.01 210.368 91.875 210.604Z" fill="#8AA1AD"/>
<path d="M91.335 211.516C91.5037 211.28 91.6386 211.044 91.7736 210.807C91.6386 211.044 91.4699 211.28 91.335 211.516Z" fill="#8AA1AD"/>
<path d="M96.5303 213.07C96.7665 213.847 97.0026 214.623 97.2388 215.434C97.0026 214.657 96.7665 213.847 96.5303 213.07Z" fill="#8AA1AD"/>
<path d="M99.5332 224.788C99.6682 225.363 99.7694 225.937 99.9044 226.545C99.7694 225.903 99.6682 225.329 99.5332 224.788Z" fill="#8AA1AD"/>
<path d="M93.0561 204.02C93.0222 203.885 93.0222 203.749 92.9883 203.614C93.0222 203.749 93.0561 203.885 93.0561 204.02Z" fill="#8AA1AD"/>
<path d="M93.0889 207.092C93.1226 206.923 93.1226 206.755 93.1563 206.586C93.1226 206.721 93.1226 206.89 93.0889 207.092Z" fill="#8AA1AD"/>
<path d="M92.8537 202.939C92.8198 202.838 92.7859 202.702 92.752 202.601C92.7859 202.702 92.8198 202.838 92.8537 202.939Z" fill="#8AA1AD"/>
<path d="M93.19 205.032C93.19 204.897 93.1562 204.728 93.1562 204.593C93.1563 204.728 93.19 204.897 93.19 205.032Z" fill="#8AA1AD"/>
<path d="M32.8629 300.504L14.9806 333.431C13.7997 335.592 13.1924 338.024 13.1924 340.489V379.36L23.1457 385V347.885C23.1457 344.035 24.1242 340.287 26.0136 336.943L43.3223 306.076C40.6906 305.131 38.2276 303.982 35.967 302.632C34.8535 301.956 33.8076 301.247 32.8629 300.504Z" fill="#C7D1E0"/>
<path d="M13.1924 340.489V379.36L23.1457 385V347.885C23.1457 345.859 23.4156 343.833 23.9555 341.908L13.8672 336.065C13.4286 337.517 13.1924 339.003 13.1924 340.489Z" fill="#B8C2D3"/>
<path d="M43.3221 306.076L26.0134 336.943C24.124 340.287 23.1455 344.069 23.1455 347.885V385L28.0378 382.636L28.3415 371.221C28.7126 357.814 36.0005 345.521 47.6071 338.835L48.788 338.159L43.3221 306.076Z" fill="#9DA8BA"/>
<path d="M95.6196 300.504L113.502 333.431C114.683 335.592 115.29 338.024 115.29 340.489V379.36L105.337 385V347.885C105.337 344.035 104.358 340.287 102.469 336.943L85.1602 306.076C87.7919 305.131 90.2549 303.982 92.5155 302.632C93.6289 301.956 94.6749 301.247 95.6196 300.504Z" fill="#9DA8BA"/>
<path d="M85.1602 306.076L102.469 336.943C104.358 340.287 105.337 344.069 105.337 347.885V385L100.445 382.636L100.141 371.221C99.7697 357.814 92.4819 345.521 80.8752 338.835L79.6943 338.159L85.1602 306.076Z" fill="#C7D1E0"/>
<path d="M101.625 311.547L101.996 312.256L101.625 311.547L108.643 324.448V320.328C108.643 316.039 105.64 312.459 101.625 311.547Z" fill="#647589"/>
<path d="M102.401 285.239C102.435 285.003 102.469 284.8 102.503 284.564C102.098 287.907 101.153 295.843 98.6562 306.076L101.625 311.581C105.64 312.493 108.643 316.073 108.643 320.328V324.482L113.502 333.431C113.569 333.566 113.637 333.735 113.738 333.87V294.121C113.738 291.825 112.692 289.63 110.904 288.211L102.806 281.761C102.739 282.538 102.638 283.348 102.536 284.192C102.503 284.53 102.435 284.902 102.401 285.239Z" fill="#7E8B9E"/>
<path d="M25.2039 285.408C25.1701 285.172 25.1364 284.969 25.1027 284.733C25.5075 288.076 26.6547 297.093 29.1515 307.326L26.5872 312.054C22.5721 312.966 19.4343 316.782 19.4343 321.071V325.225C19.4343 325.225 14.407 334.647 14.3395 334.782L13.8672 294.29C13.8672 291.994 14.9131 289.798 16.7014 288.38L24.799 281.93C24.8665 282.706 24.9677 283.517 25.0689 284.361C25.1027 284.699 25.1701 285.037 25.2039 285.408Z" fill="#9DA8BA"/>
<path d="M19.4346 321.071V325.225L26.5875 312.054C22.5724 312.932 19.4346 316.782 19.4346 321.071Z" fill="#7E8B9E"/>
<path d="M96.8678 251.468C97.9137 252.515 98.521 254.203 98.4873 256.432C98.4535 262.14 94.4047 268.894 89.6811 271.427C89.2425 271.663 88.8039 271.832 88.3652 272.001C89.8835 272.946 92.0092 272.845 94.3372 271.494C98.8922 268.86 102.604 262.444 102.57 257.209C102.604 253.021 100.208 250.826 96.8678 251.468Z" fill="#8D9EB2"/>
<path d="M96.632 263.693C95.0125 267.003 92.482 269.941 89.7153 271.427C89.2767 271.663 88.838 271.832 88.3994 272.001C89.9177 272.946 92.0434 272.845 94.3714 271.494C96.5645 270.245 98.5215 268.083 100.006 265.652L96.632 263.693Z" fill="#8193A5"/>
<path d="M94.3045 244.308C85.8357 249.205 78.9527 261.127 78.9865 270.886C79.0202 280.646 85.9369 284.598 94.4057 279.667C102.874 274.77 109.757 262.849 109.724 253.089C109.69 243.363 102.773 239.412 94.3045 244.308ZM94.372 271.494C89.817 274.129 86.1056 272.001 86.0719 266.766C86.0719 261.532 89.7495 255.115 94.3045 252.481C98.8594 249.847 102.571 251.974 102.605 257.209C102.638 262.477 98.9269 268.86 94.372 271.494Z" fill="#C7D1E0"/>
<path d="M29.5562 219.655C30.0623 217.663 30.7709 215.096 31.7156 212.192C24.6977 217.899 19.4342 228.098 19.4679 236.642C19.4679 241.472 21.1887 244.883 23.9554 246.504L24.8664 247.044C25.0351 245.254 25.2375 243.397 25.4737 241.472C26.6883 231.847 28.3416 224.316 29.5562 219.655Z" fill="#C7D1E0"/>
<path d="M97.037 238.5C88.737 237.284 70.0449 250.657 70.0449 265.686C70.0449 270.515 71.7657 273.926 74.5324 275.547L83.4735 280.748C80.7068 279.127 78.9861 275.716 78.9861 270.886C78.9523 261.126 85.8353 249.205 94.3041 244.308C98.5553 241.843 102.435 241.607 105.236 243.261L97.037 238.5Z" fill="#FDFEFF"/>
<g opacity="0.5">
<path opacity="0.38" d="M46.0212 192.131C39.4419 205.606 104.864 220.736 90.4232 198.379C89.7822 197.602 89.0399 196.826 88.1964 196.117C88.0952 196.049 88.0277 195.981 87.9265 195.914C87.7915 195.779 87.6228 195.677 87.4878 195.542C87.3529 195.441 87.2179 195.34 87.083 195.238C86.948 195.137 86.813 195.036 86.6781 194.935C86.5094 194.799 86.3407 194.698 86.1382 194.563C86.037 194.495 85.9358 194.428 85.8008 194.327C85.4972 194.124 85.1935 193.921 84.8561 193.753C74.4642 187.471 57.6278 186.897 46.0212 192.131Z" fill="#0073BA"/>
</g>
<path d="M90.9973 149.107C89.0067 151.64 85.2953 152.247 82.7648 150.255C80.5042 148.499 79.8631 145.392 81.179 142.927C82.3599 140.731 83.642 138.3 84.8229 135.868H93.2579L94.1014 145.088C93.0217 146.506 92.0095 147.857 90.9973 149.107Z" fill="#EDC1A4"/>
<path d="M81.1791 142.96C82.36 140.765 83.6421 138.334 84.823 135.902H87.2523C86.2064 139.246 83.3385 145.493 83.8783 148.769C84.1145 150.086 82.3263 148.195 81.7864 149.276C80.3356 147.486 80.0657 145.02 81.1791 142.96Z" fill="#E0A98D"/>
<path d="M44.8738 103.211L57.1889 116.484C56.2104 125.568 56.0755 129.621 56.0755 129.621C56.0755 129.621 65.7589 131.174 72.6081 131.816C75.4423 132.086 77.6017 134.484 77.6017 137.321C77.6017 140.259 75.3074 142.69 72.372 142.859C64.2743 143.298 57.7625 142.623 52.9376 141.711C46.8644 140.563 42.4782 135.227 42.5457 129.047C42.6132 122.765 43.153 113.039 44.8738 103.211Z" fill="url(#paint3_linear)"/>
<path opacity="0.14" d="M57.1893 116.484L54.6588 113.782L47.9782 131.174C45.414 138.097 47.3034 139.144 47.3034 139.144L51.6559 134.551L57.1893 116.484Z" fill="#E8B497"/>
<path d="M36.6758 175.178C43.9299 164.878 49.1596 159.643 51.5552 157.043C51.7913 156.807 51.9938 156.57 52.23 156.3C52.2974 156.199 52.4324 156.097 52.4999 155.996C52.5336 155.962 52.6011 155.895 52.6348 155.861C52.7023 155.76 52.8373 155.658 52.9048 155.557C52.9722 155.456 53.1072 155.354 53.1747 155.253C53.2084 155.219 53.2759 155.152 53.3096 155.118C53.3771 155.017 53.5121 154.915 53.5796 154.814C53.8157 154.578 54.0182 154.341 54.2544 154.105C54.2206 154.139 54.2206 154.172 54.1869 154.206C54.2206 154.172 54.2544 154.105 54.2881 154.071C54.4231 153.97 54.558 153.801 54.693 153.7C54.7605 153.632 54.8279 153.565 54.8954 153.497C55.0304 153.396 55.1653 153.227 55.3003 153.126C55.4353 153.024 55.5702 152.855 55.7052 152.754C55.7727 152.687 55.8401 152.619 55.9076 152.551C56.0426 152.45 56.1775 152.281 56.3125 152.18C56.4475 152.079 56.5824 151.91 56.7174 151.808C56.7849 151.741 56.8523 151.673 56.9198 151.606C57.0548 151.505 57.1897 151.336 57.3247 151.234C57.4597 151.133 57.5946 150.964 57.7296 150.863C57.7971 150.795 57.8646 150.728 57.932 150.66C58.067 150.559 58.202 150.39 58.3369 150.289C59.2479 149.411 59.2479 149.411 61.0024 147.756C61.441 147.351 61.8796 146.945 62.3182 146.54C62.7569 146.135 63.1955 145.73 63.6679 145.324C63.6679 145.324 64.4776 144.581 65.6923 143.535C67.4467 142.015 69.0325 140.698 69.7748 140.09C71.8667 138.367 72.2041 138.165 72.3728 138.03C72.9801 137.625 74.0261 137.118 75.3419 137.017C76.8265 136.882 77.8387 137.354 78.1761 137.489C80.2005 138.469 81.044 140.259 81.2465 140.765C81.4152 141.171 82.09 143.197 82.4948 144.379C82.866 145.493 83.2034 146.608 83.5745 147.722C83.9457 148.837 84.2493 149.951 84.5867 151.066C84.6205 151.167 85.2953 153.463 86.4087 157.921C86.4424 158.022 86.4424 158.09 86.4424 158.158C86.4424 158.09 86.4424 157.989 86.4087 157.921C86.4424 158.09 86.5099 158.293 86.5437 158.428C86.5774 158.495 86.5774 158.597 86.6111 158.698C86.6449 158.867 86.7124 159.069 86.7461 159.204C86.7798 159.373 86.8473 159.576 86.8811 159.711C86.9148 159.779 86.9148 159.88 86.9485 159.981C86.9823 160.15 87.0498 160.353 87.0835 160.488C87.1172 160.657 87.1847 160.859 87.2185 160.994C87.2522 161.062 87.2522 161.163 87.2859 161.264C87.3197 161.433 87.3872 161.636 87.4209 161.771C87.4546 161.94 87.5221 162.143 87.5559 162.278C87.5896 162.345 87.5896 162.446 87.6233 162.548C87.6571 162.717 87.7246 162.919 87.7583 163.054C87.7583 163.088 87.7583 163.156 87.792 163.189C87.792 163.156 87.792 163.156 87.792 163.122C88.0282 164.371 88.2644 165.655 88.5006 166.904C90.7612 178.657 91.2335 187.843 91.436 191.321C91.5035 192.908 89.3103 193.955 84.7554 194.158C74.4647 194.563 64.1065 192.908 54.4568 189.43C49.9694 187.809 44.9421 185.918 41.1295 182.979C39.3075 181.73 34.9213 177.677 36.6758 175.178Z" fill="url(#paint4_linear)"/>
<path d="M65.7595 143.366C65.7257 143.399 65.692 143.433 65.6245 143.467C64.4099 144.514 63.6338 145.257 63.6001 145.257C63.1615 145.662 62.6891 146.067 62.2505 146.473C61.8119 146.878 61.3733 147.283 60.9346 147.688C59.1801 149.343 59.1801 149.343 58.2692 150.221C58.1342 150.323 57.9992 150.491 57.8643 150.593C57.7968 150.66 57.7293 150.728 57.6618 150.795C57.5269 150.897 57.3919 151.065 57.257 151.167C57.122 151.268 56.987 151.437 56.8521 151.538C56.7846 151.606 56.7171 151.673 56.6496 151.741C56.5147 151.842 56.3797 152.011 56.2448 152.112C56.1098 152.214 55.9748 152.383 55.8399 152.484C55.7724 152.551 55.7049 152.619 55.6374 152.687C55.5025 152.788 55.3675 152.957 55.2326 153.058C55.0976 153.159 54.9626 153.328 54.8277 153.429C54.7602 153.497 54.6927 153.565 54.6252 153.632C54.4903 153.733 54.3553 153.902 54.2203 154.004C54.1866 154.037 54.1529 154.105 54.1191 154.139C54.1529 154.105 54.1529 154.071 54.1866 154.037C53.9504 154.274 53.748 154.51 53.5118 154.747C53.4443 154.848 53.3094 154.949 53.2419 155.051C53.2081 155.084 53.1407 155.152 53.1069 155.186C53.0394 155.287 52.9045 155.388 52.837 155.49C52.7695 155.591 52.6346 155.692 52.5671 155.793C52.5333 155.827 52.4659 155.895 52.4321 155.929C52.3646 156.03 52.2297 156.131 52.1622 156.233C51.926 156.469 51.7236 156.705 51.4874 156.975C50.7789 157.718 49.8679 158.698 48.7207 159.914C49.2268 159.914 55.435 163.021 55.435 163.021L65.7595 143.366Z" fill="#054C90"/>
<path d="M91.2331 191.321C90.6596 178.758 89.0738 171.531 88.4327 168.019C88.3652 167.681 88.2978 167.377 88.264 167.039C88.2303 166.938 88.2303 166.769 88.1965 166.634C88.1965 166.567 88.1628 166.499 88.1628 166.431C88.129 166.33 88.1291 166.161 88.0953 166.026C88.0616 165.925 88.0616 165.756 88.0278 165.621C88.0278 165.553 87.9941 165.486 87.9941 165.418C87.9603 165.317 87.9604 165.148 87.9266 165.013C87.8591 164.675 87.7917 164.371 87.7579 164.034C87.7579 164.068 87.7579 164.101 87.7579 164.135C87.7579 164.068 87.7579 164.034 87.7242 163.966C87.6904 163.797 87.6229 163.595 87.5892 163.426C87.5555 163.358 87.5555 163.223 87.5217 163.156C87.488 162.987 87.4205 162.784 87.3868 162.615C87.353 162.446 87.2855 162.244 87.2518 162.075C87.2181 162.007 87.2181 161.872 87.1843 161.805C87.1506 161.636 87.0831 161.433 87.0494 161.264C87.0156 161.096 86.9481 160.893 86.9144 160.724C86.8807 160.657 86.8807 160.521 86.8469 160.454C86.8132 160.285 86.7457 160.082 86.712 159.914C86.6782 159.745 86.6107 159.542 86.577 159.373C86.5433 159.306 86.5433 159.171 86.5095 159.103C86.4758 158.934 86.4083 158.732 86.3746 158.563C86.0709 157.347 86.0709 157.347 85.4973 154.949C85.3624 154.375 85.1937 153.767 85.025 153.193C84.89 152.619 84.6876 152.011 84.5526 151.437C84.5526 151.437 84.2489 150.39 83.8103 148.837C83.1693 146.574 82.5282 144.615 82.2245 143.67C81.381 141.069 81.2123 140.698 81.1449 140.529C80.8412 139.853 80.2339 138.874 79.1879 138.03C78.007 137.118 76.8936 136.949 76.5225 136.882C82.5957 138.064 83.979 175.448 83.1693 194.124C86.2059 194.225 91.3344 193.854 91.2331 191.321Z" fill="#054C90"/>
<path d="M57.1895 116.484L31.1084 88.6222C34.0438 84.7047 38.3625 80.2469 45.4142 74.8772C59.3826 64.2054 77.5686 51.7438 77.636 51.71C77.636 51.71 131.856 -1.88521 165.225 -38.9662L235.034 -29.9493C158.207 50.8995 147.849 54.9183 125.817 89.6691C103.785 124.42 110.904 120.232 98.5549 138.739C97.0366 141.002 95.552 143.129 94.1012 145.088L84.8227 135.868C87.6906 129.891 89.6475 123.88 86.5434 120.84C82.5284 116.956 75.173 124.082 68.7286 130.87C67.9864 131.647 67.3116 132.39 66.6705 133.099C61.9806 138.232 58.8765 144.615 57.7631 151.471C57.2233 154.713 56.6497 158.293 56.1773 161.366C55.8062 163.797 53.7143 165.553 51.285 165.553C48.7882 165.553 46.6626 163.696 46.3589 161.231C45.7854 156.638 45.5492 151.64 45.448 147.756C45.3467 143.636 46.1565 139.516 47.8098 135.733C50.7452 129.08 53.9505 122.09 57.1895 116.484Z" fill="#EDC1A4"/>
<path d="M104.83 343.157C105.167 344.711 105.336 346.298 105.336 347.885V385L115.29 379.36V340.489C115.29 339.409 115.155 338.328 114.918 337.281L104.83 343.157Z" fill="#909CAF"/>
<path d="M86.6112 137.692L84.7892 135.902C87.6571 129.925 89.614 123.913 86.5099 120.874C85.7002 120.063 84.7217 119.759 83.6758 119.759C90.9636 119.422 89.8165 128.472 86.6112 137.692Z" fill="#E0A98D"/>
<path d="M34.6514 89.6691C34.6514 89.6691 32.5933 89.1625 30.6363 90.3783C29.6579 90.9524 28.8144 92.1006 28.207 93.08C28.2408 93.0462 28.2408 93.0124 28.2745 92.9787C29.0505 91.594 29.9953 90.1419 31.1424 88.6222C34.0778 84.7047 38.3966 80.2469 45.4482 74.8772C59.4167 64.2054 77.6026 51.7438 77.6701 51.71C77.6701 51.71 131.89 -1.88521 165.259 -38.9662L172.817 -37.9868L79.1546 52.3517C61.8122 64.9484 36.6421 79.1999 34.6514 89.6691Z" fill="url(#paint5_linear)"/>
<defs>
<linearGradient id="paint0_linear" x1="40.1573" y1="119.913" x2="40.8264" y2="98.2987" gradientUnits="userSpaceOnUse">
<stop stop-color="#DBA78D"/>
<stop offset="1" stop-color="#EDC1A4"/>
</linearGradient>
<linearGradient id="paint1_linear" x1="29.4738" y1="103.593" x2="33.3761" y2="93.0108" gradientUnits="userSpaceOnUse">
<stop stop-color="#DBA78D"/>
<stop offset="1" stop-color="#EDC1A4"/>
</linearGradient>
<radialGradient id="paint2_radial" cx="0" cy="0" r="1" gradientUnits="userSpaceOnUse" gradientTransform="translate(-9.33345e-07 385) rotate(-19.9106) scale(135.074 189.716)">
<stop stop-color="#C8C3C3"/>
<stop offset="1" stop-color="#FFF0F0" stop-opacity="0"/>
</radialGradient>
<linearGradient id="paint3_linear" x1="57.8739" y1="133.997" x2="62.8916" y2="114.111" gradientUnits="userSpaceOnUse">
<stop stop-color="#E8B497"/>
<stop offset="1" stop-color="#EDC1A4"/>
</linearGradient>
<linearGradient id="paint4_linear" x1="91.2829" y1="165.587" x2="36.2676" y2="165.587" gradientUnits="userSpaceOnUse">
<stop stop-color="#065398"/>
<stop offset="1" stop-color="#0B5AA0"/>
</linearGradient>
<linearGradient id="paint5_linear" x1="292.073" y1="-159.047" x2="14.6622" y2="108.757" gradientUnits="userSpaceOnUse">
<stop stop-color="#DBA78D"/>
<stop offset="1" stop-color="#EDC1A4"/>
</linearGradient>
</defs>
</svg>
