<svg fill="none" height="14" viewBox="0 0 15 14" width="15" xmlns="http://www.w3.org/2000/svg"><path clip-rule="evenodd" d="m7.99918 14c3.31372 0 6.00002-3.134 6.00002-7 0-.89612-.1444-1.75291-.4074-2.54045l-2.5935 2.42095c.0006.03972.0009.07955.0009.1195 0 2.76142-1.34316 5-3.00002 5-.60026 0-1.15935-.2938-1.62831-.7999l-1.72222 1.6077c.95679.7527 2.10967 1.1922 3.35053 1.1922zm3.68832-12.5216c-1.0175-.926419-2.29764-1.4784-3.68832-1.4784-3.31371 0-6 3.13401-6 7 0 1.09366.21498 2.12875.59833 3.0509l-1.48282 1.3984c-.401794.3789-.420339 1.0118-.04142 1.4136.37892.4018 1.01181.4203 1.41361.0414l11.64592-10.98285c.4018-.37892.4203-1.011816.0414-1.413611-.3789-.401794-1.0118-.4203389-1.4136-.04142zm-6.65443 6.27558c-.02232-.24591-.03389-.49769-.03389-.75398 0-2.76142 1.34315-5 3-5 .72796 0 1.39536.43213 1.91489 1.15088z" fill="#181818" fill-rule="evenodd"/></svg>