<svg fill="none" height="18" viewBox="0 0 20 18" width="20" xmlns="http://www.w3.org/2000/svg"><path clip-rule="evenodd" d="m15.0525 5.655c2.7707 0 4.9475 1.758 4.9475 5.546v6.799h-4.4202v-6.328c0-1.656-.6909-2.787-2.2121-2.787-1.1626 0-1.8091.763-2.1101 1.499-.1132.264-.096.631-.096.999v6.617h-4.37877s.05656-11.209 0-12.228h4.37877v1.919c.2586-.839 1.6586-2.036 3.8909-2.036zm-14.54846.117h3.89798v12.228h-3.89798zm1.87677-5.772c1.43838 0 2.32323.913 2.35151 2.12 0 1.184-.91313 2.122-2.37777 2.122h-.02829c-1.411108 0-2.32626-.934-2.32626-2.119 0-1.208.941414-2.123 2.38081-2.123z" fill="#737373" fill-rule="evenodd"/></svg>