<svg fill="none" height="20" viewBox="0 0 20 20" width="20" xmlns="http://www.w3.org/2000/svg"><path d="m19 15c0 2.2091-1.7909 4-4 4h-1.5011v-6.8109h2.376l.36-2.91853h-2.7343v-1.51886c0-.77828.2143-1.40142 1.3645-1.40142h1.6346v-2.31943c-.0829-.00569-.1733-.01244-.2712-.01974-.4921-.03671-1.1716-.08741-2.0174-.08741-2.1111 0-3.7114 1.25572-3.7114 3.56229v1.78543h-2.49941v2.91767h2.49941v6.8109h-5.4997c-2.20914 0-4-1.7909-4-4v-10c0-2.20914 1.79086-4 4-4h10c2.2091 0 4 1.79086 4 4z" fill="#737373"/></svg>