<svg fill="none" height="16" viewBox="0 0 15 16" width="15" xmlns="http://www.w3.org/2000/svg"><path clip-rule="evenodd" d="m13.5241 14.5553c.3047-.3047.4759-.7181.4759-1.1491v-4.87495c0-.2255-.0468-.44616-.1352-.64897l-9.03026 7.14892h7.54046c.431 0 .8443-.1712 1.1491-.4759zm-1.5553-9.61114.9065-.72524c.4313-.34501 1.0606-.27509 1.4056.15617s.2751 1.06056-.1562 1.40557l-12.49997 10.00004c-.43126.345-1.060552.275-1.405562-.1562-.34501-.4313-.275088-1.0606.156174-1.4056l.651098-.5209c-.01745-.0956-.0264-.1932-.0264-.2918v-4.87495c0-.43098.1712-.8443.47595-1.14905.30474-.30474.71807-.47595 1.14905-.47595h.40625v-2.4375c0-1.18519.47081-2.32183 1.30886-3.15988.83806-.838056 1.9747-1.30887 3.15989-1.30887 1.18518 0 2.32183.470814 3.15986 1.30887.8381.83805 1.3089 1.97469 1.3089 3.15988zm-2.43751 1.95v-2.42541c0-.53872-.21401-1.05538-.59494-1.43631-.38094-.38093-.89759-.59494-1.43631-.59494-.53873 0-1.05538.21401-1.43632.59494-.38093.38093-.59493.89759-.59493 1.43631v2.4375h4.04739z" fill="#181818" fill-rule="evenodd"/></svg>