<svg width="32" height="32" viewBox="0 0 32 32" fill="none" xmlns="http://www.w3.org/2000/svg">
<path d="M16 31C24.2843 31 31 24.2843 31 16C31 7.71573 24.2843 1 16 1C7.71573 1 1 7.71573 1 16C1 24.2843 7.71573 31 16 31Z" fill="#E6E6E6" stroke="#181818" stroke-width="1.5" stroke-miterlimit="10" stroke-linecap="square"/>
<path d="M11.1786 13.8571C12.6579 13.8571 13.8571 12.6579 13.8571 11.1786C13.8571 9.69924 12.6579 8.5 11.1786 8.5C9.69924 8.5 8.5 9.69924 8.5 11.1786C8.5 12.6579 9.69924 13.8571 11.1786 13.8571Z" fill="white" stroke="#181818" stroke-width="1.5" stroke-miterlimit="10" stroke-linecap="square"/>
<path d="M20.8211 23.5C22.3005 23.5 23.4997 22.3008 23.4997 20.8214C23.4997 19.3421 22.3005 18.1429 20.8211 18.1429C19.3418 18.1429 18.1426 19.3421 18.1426 20.8214C18.1426 22.3008 19.3418 23.5 20.8211 23.5Z" fill="white" stroke="#181818" stroke-width="1.5" stroke-miterlimit="10" stroke-linecap="square"/>
<path d="M9.57227 22.4286L23.5008 8.5" stroke="#181818" stroke-width="1.5" stroke-miterlimit="10"/>
<path d="M18.1426 8.5H23.4997V13.8571" stroke="#181818" stroke-width="1.5" stroke-miterlimit="10" stroke-linecap="square"/>
</svg>
