<svg fill="none" height="18" viewBox="0 0 37 18" width="37" xmlns="http://www.w3.org/2000/svg"><g stroke-width=".5"><path d="m33.7116 3.25718c.7067-.306 1.3798-.646 2.0529-.952-.875 3.706-3.9039 6.426-7.1683 8.12602.875-.98602 1.9856-1.73402 2.7933-2.78802 1.0769-1.258 1.7836-2.788 2.3221-4.386z" fill="#f68026" stroke="#f68026"/><path d="m3.08654 1.013h2.1875c.16827 1.292.33654 2.55.53846 3.808.53846-1.258 1.07692-2.55 1.64904-3.808h2.25481c-.16827 2.21-.26923 4.42-.30289 6.664-.53846 0-1.11058 0-1.68269 0 .13461-1.496.26923-2.958.26923-4.454-.77404 1.428-1.27885 2.992-1.91827 4.454-.4375 0-.875 0-1.3125-.034-.13461-1.496-.37019-3.026-.53846-4.556-.40385 1.496-.63942 3.06-1.00962 4.556-.53846.034-1.07692.034-1.61538.034.50481-2.21 1.00961-4.42 1.48077-6.664zm8.00966.034c.6057-.034 1.2115-.034 1.8173-.034-.3029 2.21-.6395 4.42-.9087 6.664-.6058 0-1.2115 0-1.8173 0 .3029-2.21.6394-4.42.9087-6.63zm2.8942-.034c1.2452.068 2.5913-.203996 3.8029.306 1.3798.918.8077 3.468-.875 3.604.4375.884.875 1.836 1.3125 2.754-.5721 0-1.1443 0-1.75 0-.4375-1.054-.8414-2.142-1.3462-3.128-.2019 1.02-.3029 2.074-.4375 3.094-.5384.034-1.1106.034-1.649.034.3029-2.21.6394-4.42.9423-6.664zm7.3029 0h2.1875c.3702 2.244.7067 4.454 1.1105 6.664-.5721 0-1.1442 0-1.7163 0-.0337-.476-.101-.918-.1346-1.394-.7067 0-1.4135.034-2.1202.068-.1683.442-.3365.884-.5048 1.326-.5721 0-1.1779 0-1.75 0 1.0096-2.21 1.9519-4.454 2.9279-6.664zm4.6105 0c1.3462.034 2.726.034 4.1058 0-.0336.476-.1009.952-.1346 1.428-.8413 0-1.6827-.034-2.524-.034-.0673.408-.101.85-.1347 1.258.7404 0 1.4808 0 2.2212-.034-.0337.476-.101.952-.1346 1.394-.7741 0-1.5481-.034-2.3221-.034-.0673.442-.101.85-.1683 1.258h2.524c-.0336.476-.1009.952-.1682 1.394-1.4135.034-2.827 0-4.2404.034.3365-2.21.6394-4.454.9759-6.664zm-21.97592 9.792c.74039 0 1.44712 0 2.1875.034.13462.85.26924 1.7.40385 2.584-.63942-.17-1.27885-.34-1.91827-.476-.47115.442-.94231.884-1.41346 1.36 3.0625.272 6.15865.476 9.2212.238.2692 1.394-.6731 3.026-2.1539 3.094-1.11057.17-2.15384-.374-2.99518-1.088.26923-.442.53846-.918.80769-1.36.67307.714 2.32209 1.53 2.62499.034-1.31249-.068-2.59134-.068-3.87018-.136.10096.816.23557 1.598.40384 2.38-.57211 0-1.14423 0-1.71634 0-.06731-.578-.16827-1.122-.26924-1.7-.57211 0-1.17788 0-1.78365 0-.23558.578-.47115 1.122-.70673 1.7-.57212 0-1.17788 0-1.75 0 .97596-2.21 1.95192-4.454 2.92788-6.664z" fill="#00447b" stroke="#00447b"/><path d="m8.8105 11.013c1.04327-.884 2.625-.578 3.7356.068-.2019.408-.4039.85-.5721 1.258-.6395-.238-1.75-1.02-2.01927.068.20197.68 1.04327.884 1.54807 1.258-1.1106-.034-2.2548-.102-3.36537-.136-.16827-.884-.06731-1.904.67307-2.516zm5.3746-.2218c1.0769-.612 2.3558-.272 3.3654.272-.1683.442-.3702.918-.5721 1.36-.6058-.238-1.2116-.918-1.851-.374-.4038.816.5721 1.088 1.0433 1.462-.9423.068-1.9183.102-2.8606.17-.4375-.986-.1346-2.346.875-2.89zm4.6514.0136h4.1731c-.0673.476-.1346.952-.202 1.428-.8413 0-1.7163 0-2.5576 0 0 .238-.0674.646-.0674.884-.5721.102-1.1442.204-1.6826.306.1346-.884.2355-1.734.3365-2.618z" fill="#00447b" stroke="#00447b"/><path d="m23.4471 10.8052c1.2789.034 2.5914-.068 3.8702.102-1.3461.578-2.7259 1.054-4.1058 1.496.0674-.544.1683-1.054.2356-1.598z" fill="#004079" stroke="#004079"/><path d="m15 14.3072c4.5096-.51 9.0865-1.462 13.1923-3.502-.101.51-.202 1.02-.3029 1.564-.4375 0-.875 0-1.3125 0-.2356 1.666-.4375 3.332-.7068 4.998-.6057 0-1.2115 0-1.8173 0 .2693-1.564.4375-3.128.6731-4.692-.7404.272-1.4808.544-2.2548.782-.0673.408-.1683.85-.2692 1.258-.7741-.034-1.5481-.034-2.3221.034-.0337.408-.0673.816-.101 1.224.8413-.034 1.6827-.034 2.524-.034-.0336.34-.1346 1.054-.1682 1.428-1.4135-.034-2.827-.034-4.2068 0 .101-.986.2693-1.972.4039-2.958-.1683 0-.5721.034-.7404.068-.0673.816 0 1.836-.7404 2.414-1.2788 1.156-3.2644.646-4.4086-.442.2692-.442.5721-.884.8413-1.326.5721.408 1.1779.986 1.9519.85.5721-.068.7068-1.02.101-1.156-.7067-.034-1.4471.068-2.1875.136.0673-.17.1346-.51.2019-.68.5385.102 1.0769.102 1.6491.034z" fill="#00447b" stroke="#00447b"/><path d="m15.1682 4.07282c.101-.612.2019-1.224.2692-1.836.4712.102 1.3799-.034 1.3462.714.1683.952-.9423 1.122-1.6154 1.122zm5.9904.918c.3365-.85.6731-1.7 1.0433-2.516.1346.85.2355 1.666.3365 2.482-.4711.034-.9086.034-1.3798.034z" fill="#fff" stroke="#fff"/></g></svg>