<svg fill="none" height="29" viewBox="0 0 29 29" width="29" xmlns="http://www.w3.org/2000/svg" xmlns:xlink="http://www.w3.org/1999/xlink"><radialGradient id="a" cx="0" cy="0" gradientTransform="matrix(-15.00012032 16.99993638 -16.99993638 -15.00012032 20 8)" gradientUnits="userSpaceOnUse" r="1"><stop offset="0" stop-color="#fffefb"/><stop offset=".241156" stop-color="#fff9bd"/><stop offset=".579156" stop-color="#fff10b"/><stop offset=".841495" stop-color="#ffb31a"/><stop offset="1" stop-color="#ffee13"/></radialGradient><circle cx="14.5" cy="14.5" fill="url(#a)" r="14.5"/><g fill="#373435"><path d="m24 21-.0558-.672-1.0422-.1344c-.3722-.0576-.5211-.6336-.6142-3.7824l-.2233-6.0672c0-.2496.1303-.5184.4467-.5568l1.2655-.1152.0558-.672h-4.1129l-3.0521 8.9856h-.0931l-3.1451-8.9856h-4.2432l.05584.672 1.11666.2112c.5769.1536.8002.6336.7444 1.728l-.242 4.7232c-.1861 3.5136-.3908 3.8016-.763 3.8592l-1.04217.1344-.05583.672h4.0385l-.0559-.672-1.0608-.1344c-.3722-.0384-.3722-.3648-.2233-3.8592l.2419-5.7024h.2234l3.5173 9.984h.8933l3.6105-10.4064h.1302l.2234 6.2016c.1116 2.976 0 3.7248-.3722 3.7824l-1.0422.1344-.0559.672z"/><path d="m9 24h16.5l-1 1h-15.5z"/></g></svg>